# Blender v3.1.2 OBJ File: 'head orientation.blend'
# www.blender.org
mtllib marine_cap.mtl
o Cube.002
v 0.000000 -0.561234 -0.297844
v 0.000000 -0.598943 -0.262647
v -0.233765 -0.600668 -0.237179
v -0.263790 -0.563617 -0.262645
v 0.263790 -0.563617 -0.262645
v 0.233765 -0.600668 -0.237179
v 0.263790 -0.411508 -0.252344
v 0.000000 -0.409125 -0.287543
v -0.263790 -0.411507 -0.252344
v 0.233765 -0.640374 0.209885
v 0.000000 -0.641075 0.220231
v -0.233765 -0.640374 0.209885
v -0.263790 -0.597642 0.239779
v 0.000000 -0.599199 0.262771
v 0.263790 -0.597642 0.239779
v -0.263790 -0.445733 0.253045
v 0.000000 -0.447090 0.273072
v 0.263790 -0.445754 0.253335
v 0.000000 -0.408924 0.275657
v 0.000000 -0.378386 -0.279325
v -0.263790 -0.355745 -0.312704
v -0.263790 -0.407568 0.255629
v 0.263790 -0.407588 0.255919
v 0.263790 -0.355745 -0.312704
v -0.263790 -0.370703 -0.652625
v 0.000000 -0.370704 -0.652625
v 0.000000 -0.332538 -0.650041
v -0.263790 -0.332538 -0.650041
v 0.263790 -0.370704 -0.652625
v 0.263790 -0.332538 -0.650041
vt 0.498980 0.787042
vt 0.498969 0.999285
vt 0.000306 0.999285
vt 0.000021 0.786668
vt 0.999983 0.790436
vt 0.999904 0.999944
vt 0.499191 0.999944
vt 0.499023 0.787071
vt 0.999304 0.011431
vt 0.999980 0.790312
vt 0.501546 0.011431
vt 0.502687 0.003154
vt 0.000027 0.786592
vt 0.001639 0.003721
vt 0.899119 0.564404
vt 0.899119 0.548783
vt 0.899119 0.517542
vt 0.899119 0.501922
vt 0.891604 0.580024
vt 0.899119 0.580024
vt 0.899119 0.611265
vt 0.891604 0.611265
vt 0.891604 0.501922
vt 0.891604 0.517542
vt 0.891604 0.548783
vt 0.891604 0.486301
vt 0.899119 0.486301
vt 0.871545 0.486301
vt 0.871545 0.501922
vt 0.871545 0.517542
vt 0.871545 0.548783
vt 0.871545 0.580024
vt 0.871545 0.611265
vt 0.489508 0.586248
vt 0.499732 0.586248
vt 0.499732 0.601175
vt 0.489508 0.601175
vt 0.499732 0.541469
vt 0.503235 0.541469
vt 0.503235 0.571322
vt 0.499732 0.571322
vt 0.507238 0.530673
vt 0.507238 0.586167
vt 0.507238 0.586167
vt 0.507238 0.530673
vt 0.499732 0.526542
vt 0.503235 0.526542
vt 0.503235 0.601175
vt 0.503235 0.631028
vt 0.499732 0.631028
vt 0.494213 0.530673
vt 0.494213 0.586167
vt 0.494213 0.586167
vt 0.494213 0.475178
vt 0.507238 0.475178
vt 0.507238 0.475178
vt 0.494213 0.475178
vt 0.494213 0.530673
vt 0.499732 0.511616
vt 0.503235 0.511616
vt 0.489508 0.571322
vn -0.0869 -0.6485 -0.7562
vn 0.0869 -0.6485 -0.7562
vn 0.1326 0.0670 -0.9889
vn -0.1326 0.0670 -0.9889
vn -0.0000 -0.9961 -0.0877
vn 0.0007 -0.9961 -0.0877
vn -0.0000 -0.9962 -0.0877
vn -0.7993 -0.5991 -0.0465
vn 0.0532 -0.6602 0.7492
vn 0.7993 -0.5991 -0.0465
vn -0.0532 -0.6602 0.7492
vn -0.0007 -0.9961 -0.0877
vn -0.0787 -0.0722 0.9943
vn -0.0815 -0.0770 0.9937
vn 1.0000 -0.0000 0.0000
vn 0.0778 -0.0727 0.9943
vn 0.0809 -0.0780 0.9937
vn -1.0000 0.0000 0.0000
vn -0.0000 0.9973 0.0731
vn -0.0000 0.9965 0.0841
vn 0.0372 0.9956 0.0860
vn 0.0379 0.9966 0.0731
vn -0.0000 -0.9947 -0.1030
vn -0.0024 -0.9947 -0.1030
vn 0.0748 -0.0674 0.9949
vn 0.0000 0.0676 -0.9977
vn -0.0372 0.9956 0.0860
vn -0.0365 0.9946 0.0970
vn 0.0000 0.9953 0.0971
vn 0.0365 0.9946 0.0970
vn -0.0759 -0.0674 0.9948
vn 0.0024 -0.9947 -0.1030
vn -0.0379 0.9966 0.0731
usemtl Material.001
s 1
f 1/1/1 2/2/1 3/3/1 4/4/1
f 5/5/2 6/6/2 2/7/2 1/8/2
f 7/9/3 5/10/3 1/1/3 8/11/3
f 8/12/4 1/1/4 4/13/4 9/14/4
f 2/15/5 6/16/6 10/17/6 11/18/7
f 4/19/8 3/20/8 12/21/8 13/22/8
f 14/23/9 11/18/9 10/17/9 15/24/9
f 15/24/10 10/17/10 6/16/10 5/25/10
f 13/26/11 12/27/11 11/18/11 14/23/11
f 3/20/12 2/15/5 11/18/7 12/27/12
f 16/28/13 13/26/14 14/23/14 17/29/13
f 18/30/15 15/24/15 5/25/15 7/31/15
f 17/29/16 14/23/17 15/24/17 18/30/16
f 9/32/18 4/19/18 13/22/18 16/33/18
f 19/34/19 20/35/20 21/36/21 22/37/22
f 23/38/15 18/39/15 7/40/15 24/41/15
f 8/42/23 9/43/24 25/44/24 26/45/23
f 19/46/25 17/47/16 18/39/16 23/38/25
f 21/36/18 9/48/18 16/49/18 22/50/18
f 27/51/26 26/45/26 25/44/26 28/52/26
f 9/43/18 21/53/18 28/52/18 25/44/18
f 24/54/15 7/55/15 29/56/15 30/57/15
f 20/58/20 24/54/27 30/57/28 27/51/29
f 21/53/21 20/58/20 27/51/29 28/52/30
f 30/57/26 29/56/26 26/45/26 27/51/26
f 22/59/31 16/60/13 17/47/13 19/46/31
f 7/55/32 8/42/23 26/45/23 29/56/32
f 23/61/33 24/41/27 20/35/20 19/34/19
