# Blender v3.1.2 OBJ File: 'fire_bullet.blend'
# www.blender.org
mtllib fire_bullet.mtl
o Сфера
v -0.404652 -0.208781 -0.025322
v -0.404643 -0.025298 -0.208767
v -0.418855 -0.094927 -0.094942
v -0.208882 -0.404728 -0.026648
v -0.253536 -0.254234 -0.253588
v -0.297666 -0.297965 -0.092442
v -0.208843 -0.025527 -0.404702
v -0.297647 -0.091869 -0.297635
v -0.386450 -0.158212 -0.158237
v -0.026803 -0.404784 -0.208983
v -0.095830 -0.419101 -0.095738
v -0.025689 -0.208950 -0.404762
v -0.092703 -0.298049 -0.297743
v -0.159717 -0.387149 -0.159563
v -0.095162 -0.095065 -0.419027
v -0.158603 -0.158441 -0.386502
v -0.404652 -0.208781 0.025323
v -0.418855 -0.094928 0.094942
v -0.404644 -0.025300 0.208768
v -0.208882 -0.404728 0.026649
v -0.297666 -0.297965 0.092443
v -0.253536 -0.254235 0.253589
v -0.386451 -0.158214 0.158237
v -0.297648 -0.091872 0.297635
v -0.208845 -0.025530 0.404703
v -0.095831 -0.419101 0.095738
v -0.026805 -0.404785 0.208984
v -0.159719 -0.387149 0.159563
v -0.092706 -0.298051 0.297743
v -0.025693 -0.208952 0.404763
v -0.158607 -0.158445 0.386503
v -0.095164 -0.095067 0.419028
v -0.404643 0.025290 -0.208767
v -0.418852 0.094923 -0.094929
v -0.404647 0.208772 -0.025301
v -0.208843 0.025519 -0.404702
v -0.297643 0.091862 -0.297631
v -0.386444 0.158204 -0.158216
v -0.253529 0.254224 -0.253581
v -0.297656 0.297955 -0.092412
v -0.208868 0.404718 -0.026608
v -0.095150 0.095060 -0.419024
v -0.158583 0.158433 -0.386496
v -0.025669 0.208942 -0.404757
v -0.092673 0.298040 -0.297732
v -0.159677 0.387138 -0.159522
v -0.026762 0.404775 -0.208969
v -0.095806 0.419084 -0.095713
v -0.418852 0.094924 0.094930
v -0.404644 0.025292 0.208768
v -0.404647 0.208772 0.025302
v -0.386444 0.158206 0.158216
v -0.297644 0.091864 0.297632
v -0.208845 0.025522 0.404703
v -0.297656 0.297955 0.092412
v -0.253530 0.254224 0.253582
v -0.208868 0.404718 0.026609
v -0.158585 0.158436 0.386496
v -0.095151 0.095062 0.419026
v -0.159678 0.387139 0.159523
v -0.092675 0.298041 0.297733
v -0.025671 0.208943 0.404758
v -0.095807 0.419084 0.095714
v -0.026764 0.404775 0.208969
v 0.027025 -0.404784 -0.208983
v 0.095964 -0.419176 -0.096076
v 0.025879 -0.208950 -0.404762
v 0.092909 -0.298132 -0.297820
v 0.159939 -0.387314 -0.160127
v 0.095276 -0.095381 -0.419102
v 0.158793 -0.158969 -0.386657
v 0.209103 -0.404853 -0.027213
v 0.253795 -0.254400 -0.253743
v 0.297906 -0.298234 -0.093218
v 0.209064 -0.026055 -0.404827
v 0.297886 -0.092627 -0.297898
v 0.386709 -0.159199 -0.159223
v 0.404895 -0.209153 -0.026309
v 0.404886 -0.026284 -0.209140
v 0.419298 -0.095519 -0.095534
v 0.095965 -0.419176 0.096077
v 0.027027 -0.404785 0.208984
v 0.159941 -0.387315 0.160128
v 0.092912 -0.298133 0.297821
v 0.025882 -0.208952 0.404763
v 0.158797 -0.158972 0.386658
v 0.095278 -0.095383 0.419103
v 0.209103 -0.404853 0.027214
v 0.297906 -0.298234 0.093219
v 0.253795 -0.254401 0.253743
v 0.386710 -0.159201 0.159224
v 0.297887 -0.092629 0.297899
v 0.209064 -0.026057 0.404827
v 0.404895 -0.209153 0.026309
v 0.419298 -0.095520 0.095534
v 0.404886 -0.026286 0.209141
v 0.095264 0.095377 -0.419099
v 0.158773 0.158961 -0.386650
v 0.025858 0.208942 -0.404757
v 0.092879 0.298123 -0.297809
v 0.159899 0.387304 -0.160087
v 0.026984 0.404775 -0.208969
v 0.095939 0.419159 -0.096052
v 0.209064 0.026047 -0.404827
v 0.297883 0.092619 -0.297895
v 0.386703 0.159191 -0.159202
v 0.253788 0.254390 -0.253736
v 0.297895 0.298225 -0.093187
v 0.209088 0.404843 -0.027172
v 0.404886 0.026276 -0.209140
v 0.419295 0.095514 -0.095521
v 0.404890 0.209145 -0.026288
v 0.158775 0.158963 0.386651
v 0.095265 0.095378 0.419100
v 0.159900 0.387304 0.160088
v 0.092880 0.298124 0.297810
v 0.025861 0.208943 0.404758
v 0.095940 0.419159 0.096053
v 0.026986 0.404775 0.208969
v 0.386703 0.159192 0.159203
v 0.297884 0.092621 0.297896
v 0.209064 0.026049 0.404827
v 0.297896 0.298225 0.093188
v 0.253789 0.254390 0.253737
v 0.209088 0.404843 0.027173
v 0.419296 0.095515 0.095522
v 0.404886 0.026278 0.209141
v 0.404890 0.209145 0.026288
vn -0.7020 -0.6150 -0.3591
vn -0.7163 -0.3315 -0.6141
vn -0.9401 -0.2554 -0.2259
vn -0.2190 -0.9425 -0.2526
vn -0.6197 -0.7149 -0.3238
vn -0.3314 -0.6126 -0.7176
vn -0.2564 -0.2256 -0.9399
vn -0.6185 -0.3578 -0.6996
vn -0.9923 -0.1238 0.0000
vn -0.6403 -0.7681 -0.0000
vn -0.7181 -0.6121 0.3312
vn -0.7163 -0.3315 0.6141
vn -0.1261 -0.9920 -0.0000
vn -0.2532 -0.9424 0.2183
vn -0.3602 -0.6947 0.6226
vn -0.3602 -0.6156 0.7009
vn -0.2263 -0.2558 0.9399
vn -0.2564 -0.2256 0.9399
vn -0.9923 0.0000 -0.1239
vn -0.6389 0.0000 -0.7693
vn -0.9400 0.2259 -0.2555
vn -0.7020 0.6151 -0.3591
vn -0.9400 0.2555 -0.2259
vn -0.1250 0.0000 -0.9922
vn -0.6155 0.3307 -0.7154
vn -0.3314 0.6127 -0.7175
vn -0.6184 0.3578 -0.6997
vn -0.6196 0.7149 -0.3239
vn -0.9923 0.0000 0.1239
vn -0.9923 0.1238 0.0000
vn -0.9400 0.2259 0.2555
vn -0.6389 0.0000 0.7693
vn -0.7697 0.0000 0.6384
vn -0.6403 0.7681 0.0000
vn -0.7180 0.6122 0.3312
vn -0.6155 0.3307 0.7154
vn -0.1250 0.0000 0.9922
vn -0.6235 0.6944 0.3591
vn -0.3601 0.6157 0.7009
vn -0.2263 0.2558 0.9398
vn -0.2532 0.9424 0.2184
vn -0.3251 0.7152 0.6187
vn 0.0000 -0.9920 -0.1264
vn -0.0006 -0.7682 -0.6402
vn -0.0006 -0.6396 -0.7687
vn 0.3220 -0.7154 -0.6201
vn -0.0006 -0.1246 -0.9922
vn 0.2243 -0.2558 -0.9404
vn 0.6231 -0.6940 -0.3607
vn 0.6147 -0.3304 -0.7163
vn 0.3595 -0.6171 -0.7000
vn 0.6979 -0.3593 -0.6195
vn 0.7172 -0.6143 -0.3290
vn -0.0004 -1.0000 -0.0000
vn 0.0000 -0.9920 0.1264
vn 0.2168 -0.9430 0.2526
vn -0.0006 -0.7682 0.6402
vn 0.3286 -0.6138 0.7178
vn 0.1256 -0.9921 0.0000
vn 0.7684 -0.6400 -0.0000
vn 0.6190 -0.7157 0.3234
vn 0.6231 -0.6940 0.3607
vn 0.6989 -0.6176 0.3607
vn 0.6177 -0.3593 0.6995
vn 0.6147 -0.3304 0.7163
vn 0.6399 -0.7685 0.0000
vn 0.9921 -0.1257 -0.0000
vn 0.9401 -0.2562 0.2249
vn 0.9401 -0.2248 0.2563
vn -0.0004 0.0000 -1.0000
vn -0.0006 0.1247 -0.9922
vn 0.2243 0.2558 -0.9403
vn 0.0000 0.7685 -0.6398
vn -0.0006 0.6396 -0.7687
vn 0.3221 0.7154 -0.6200
vn -0.0006 0.9921 -0.1257
vn 0.7692 0.0000 -0.6390
vn 0.2551 0.2251 -0.9404
vn 0.6980 0.3593 -0.6195
vn 0.3595 0.6937 -0.6241
vn 0.2518 0.9430 -0.2176
vn 0.6384 0.0000 -0.7697
vn 0.9920 0.0000 -0.1259
vn 0.7154 0.3294 -0.6162
vn 0.7172 0.6143 -0.3290
vn -0.0004 0.0000 1.0000
vn 0.3286 0.6138 0.7178
vn 0.0000 0.7685 0.6398
vn 0.0000 0.1253 0.9921
vn -0.0004 1.0000 -0.0000
vn 0.2168 0.9430 0.2525
vn -0.0006 0.9921 0.1257
vn 0.0000 0.6400 0.7683
vn 0.2551 0.2251 0.9404
vn 0.1245 0.0000 0.9922
vn 0.6989 0.6177 0.3606
vn 0.3595 0.6937 0.6241
vn 0.6177 0.3593 0.6995
vn 0.7684 0.6400 -0.0000
vn 0.6189 0.7158 0.3235
vn 1.0000 0.0000 -0.0000
vn 0.9921 0.0000 0.1258
vn 0.7154 0.3294 0.6162
vn 0.6385 0.0000 0.7697
vn 0.6398 0.7685 -0.0000
vn 0.9401 0.2562 0.2249
vn -0.7010 -0.3578 -0.6169
vn -0.9401 -0.2258 -0.2555
vn -0.7181 -0.6121 -0.3312
vn -0.3250 -0.7152 -0.6188
vn -0.2263 -0.2558 -0.9399
vn -0.6155 -0.3306 -0.7154
vn -0.3601 -0.6156 -0.7009
vn -0.7689 -0.6394 -0.0000
vn -0.9401 -0.2554 0.2259
vn -0.7020 -0.6150 0.3591
vn -0.9401 -0.2258 0.2555
vn -0.6197 -0.7149 0.3238
vn -0.6236 -0.6943 0.3592
vn -0.6185 -0.3578 0.6996
vn -0.3314 -0.6126 0.7175
vn -0.6155 -0.3306 0.7154
vn -0.7163 0.3316 -0.6140
vn -0.7011 0.3578 -0.6168
vn -0.7180 0.6121 -0.3312
vn -0.2565 0.2257 -0.9398
vn -0.2264 0.2558 -0.9398
vn -0.3601 0.6157 -0.7009
vn -0.3601 0.6948 -0.6225
vn -0.2532 0.9424 -0.2184
vn -0.7163 0.3316 0.6140
vn -0.9400 0.2555 0.2259
vn -0.7020 0.6151 0.3591
vn -0.7689 0.6394 -0.0000
vn -0.2565 0.2257 0.9398
vn -0.3601 0.6948 0.6225
vn -0.6184 0.3579 0.6996
vn -0.3314 0.6127 0.7175
vn -0.1260 0.9920 -0.0000
vn -0.6196 0.7149 0.3239
vn -0.0006 -0.9921 -0.1258
vn 0.0000 -0.7685 -0.6398
vn 0.2168 -0.9430 -0.2526
vn 0.0000 -0.1253 -0.9921
vn 0.3596 -0.6936 -0.6242
vn 0.2551 -0.2250 -0.9404
vn 0.6177 -0.3593 -0.6995
vn 0.6989 -0.6176 -0.3607
vn 0.9401 -0.2562 -0.2249
vn -0.0006 -0.9921 0.1258
vn 0.3220 -0.7154 0.6201
vn 0.0000 -0.7685 0.6398
vn 0.2243 -0.2558 0.9404
vn 0.2518 -0.9430 0.2176
vn 0.3596 -0.6936 0.6242
vn 0.6979 -0.3593 0.6195
vn 0.3595 -0.6171 0.7000
vn 0.2551 -0.2250 0.9404
vn 0.7154 -0.3293 0.6163
vn 0.0000 0.1253 -0.9921
vn 0.3286 0.6138 -0.7178
vn -0.0006 0.7682 -0.6402
vn 0.0000 0.6400 -0.7683
vn 0.2168 0.9430 -0.2525
vn 0.0000 0.9920 -0.1264
vn 0.6146 0.3305 -0.7163
vn 0.6989 0.6176 -0.3606
vn 0.6229 0.6942 -0.3607
vn 0.6189 0.7158 -0.3235
vn 0.6385 0.0000 -0.7697
vn 0.9921 0.0000 -0.1258
vn 0.9401 0.2249 -0.2563
vn 0.9401 0.2562 -0.2249
vn -0.0006 0.1247 0.9922
vn 0.3221 0.7155 0.6200
vn 0.0000 0.9920 0.1264
vn -0.0006 0.6396 0.7687
vn 0.6146 0.3305 0.7163
vn 0.6980 0.3593 0.6195
vn 0.3595 0.6171 0.7000
vn 0.2518 0.9430 0.2176
vn 0.9920 0.0000 0.1259
vn 0.9401 0.2249 0.2563
vn 0.6384 0.0000 0.7697
vn 0.7172 0.6143 0.3290
vn -0.3250 -0.7152 0.6188
vn -0.6235 0.6944 -0.3591
vn -0.2190 0.9425 -0.2526
vn -1.0000 0.0000 -0.0000
vn -0.7011 0.3578 0.6168
vn 0.2518 -0.9430 -0.2176
vn 0.9401 -0.2248 -0.2563
vn 0.0000 -0.6400 0.7684
vn 0.0000 -0.1253 0.9921
vn 0.3594 0.6171 -0.7000
vn 0.7692 0.0000 0.6390
vn 0.1255 0.9921 -0.0000
vn -0.2532 -0.9424 -0.2183
vn -0.2190 -0.9425 0.2526
vn -0.7697 0.0000 -0.6384
vn -0.2190 0.9425 0.2526
vn 0.0000 -0.6400 -0.7684
vn -0.0006 -0.6396 0.7687
vn -0.0006 -0.1247 0.9922
vn 0.7172 -0.6143 0.3290
vn 0.1245 0.0000 -0.9922
vn 0.2243 0.2558 0.9403
vn -0.0006 0.7682 0.6402
vn 0.9921 0.1258 0.0000
vn -0.3602 -0.6947 -0.6226
vn -0.7010 -0.3578 0.6169
vn -0.6236 -0.6943 -0.3592
vn -0.3251 0.7152 -0.6187
vn 0.3286 -0.6138 -0.7178
vn 0.6190 -0.7157 -0.3234
vn 0.7154 -0.3293 -0.6163
vn 0.6177 0.3593 -0.6995
vn 0.6229 0.6942 0.3607
usemtl Material.001
s off
f 9//1 5//1 6//1
f 9//2 2//2 8//2
f 9//3 1//3 3//3
f 14//4 10//4 11//4
f 14//5 4//5 6//5
f 16//6 12//6 13//6
f 16//7 7//7 15//7
f 16//8 5//8 8//8
f 18//9 1//9 17//9
f 17//10 6//10 21//10
f 23//11 17//11 21//11
f 19//12 23//12 24//12
f 26//13 4//13 11//13
f 28//14 20//14 26//14
f 22//15 28//15 29//15
f 31//16 22//16 29//16
f 31//17 30//17 32//17
f 25//18 31//18 32//18
f 33//19 3//19 34//19
f 33//20 8//20 2//20
f 38//21 33//21 34//21
f 39//22 38//22 40//22
f 35//23 38//23 34//23
f 36//24 15//24 7//24
f 43//25 36//25 37//25
f 44//26 43//26 45//26
f 39//27 43//27 37//27
f 41//28 46//28 40//28
f 50//29 18//29 19//29
f 35//30 49//30 51//30
f 50//31 52//31 49//31
f 50//32 24//32 53//32
f 54//33 24//33 25//33
f 51//34 40//34 35//34
f 51//35 52//35 55//35
f 54//36 58//36 53//36
f 54//37 32//37 59//37
f 56//38 60//38 55//38
f 56//39 58//39 61//39
f 62//40 58//40 59//40
f 57//41 60//41 63//41
f 64//42 60//42 61//42
f 66//43 10//43 65//43
f 13//44 67//44 68//44
f 68//45 10//45 13//45
f 69//46 65//46 68//46
f 70//47 12//47 15//47
f 71//48 67//48 70//48
f 69//49 73//49 74//49
f 71//50 75//50 76//50
f 71//51 73//51 68//51
f 77//52 73//52 76//52
f 77//53 78//53 74//53
f 26//54 66//54 81//54
f 27//55 81//55 82//55
f 83//56 82//56 81//56
f 85//57 29//57 84//57
f 86//58 85//58 84//58
f 81//59 72//59 88//59
f 89//60 72//60 74//60
f 83//61 88//61 89//61
f 90//62 83//62 89//62
f 91//63 90//63 89//63
f 86//64 90//64 92//64
f 93//65 86//65 92//65
f 94//66 74//66 78//66
f 95//67 78//67 80//67
f 91//68 94//68 95//68
f 96//69 91//69 95//69
f 97//70 15//70 42//70
f 44//71 97//71 42//71
f 99//72 98//72 97//72
f 45//73 99//73 44//73
f 47//74 100//74 45//74
f 102//75 101//75 100//75
f 103//76 47//76 48//76
f 104//77 76//77 75//77
f 98//78 104//78 97//78
f 107//79 106//79 105//79
f 101//80 107//80 100//80
f 109//81 101//81 103//81
f 110//82 76//82 105//82
f 110//83 80//83 79//83
f 106//84 110//84 105//84
f 112//85 106//85 108//85
f 114//86 32//86 87//86
f 117//87 113//87 116//87
f 117//88 61//88 62//88
f 62//89 114//89 117//89
f 63//90 103//90 48//90
f 119//91 115//91 118//91
f 64//92 118//92 63//92
f 64//93 116//93 119//93
f 122//94 113//94 114//94
f 122//95 87//95 93//95
f 124//96 120//96 123//96
f 124//97 115//97 116//97
f 124//98 113//98 121//98
f 109//99 123//99 108//99
f 125//100 115//100 123//100
f 126//101 80//101 111//101
f 127//102 95//102 126//102
f 127//103 120//103 121//103
f 127//104 92//104 96//104
f 128//105 108//105 123//105
f 128//106 120//106 126//106
f 9//107 8//107 5//107
f 9//108 3//108 2//108
f 9//109 6//109 1//109
f 14//110 13//110 10//110
f 16//111 15//111 12//111
f 16//112 8//112 7//112
f 16//113 13//113 5//113
f 18//9 3//9 1//9
f 21//114 6//114 4//114
f 17//10 1//10 6//10
f 23//115 18//115 17//115
f 23//116 21//116 22//116
f 19//117 18//117 23//117
f 26//13 20//13 4//13
f 28//118 21//118 20//118
f 22//119 21//119 28//119
f 31//120 24//120 22//120
f 31//121 29//121 30//121
f 25//122 24//122 31//122
f 33//19 2//19 3//19
f 33//20 37//20 8//20
f 38//123 37//123 33//123
f 39//124 37//124 38//124
f 35//125 40//125 38//125
f 36//24 42//24 15//24
f 43//126 42//126 36//126
f 44//127 42//127 43//127
f 39//128 45//128 43//128
f 46//129 45//129 39//129
f 41//130 48//130 46//130
f 50//29 49//29 18//29
f 35//30 34//30 49//30
f 50//131 53//131 52//131
f 54//33 53//33 24//33
f 51//34 55//34 40//34
f 51//132 49//132 52//132
f 56//133 55//133 52//133
f 41//134 40//134 55//134
f 54//135 59//135 58//135
f 54//37 25//37 32//37
f 56//136 61//136 60//136
f 56//137 53//137 58//137
f 62//138 61//138 58//138
f 63//139 48//139 41//139
f 57//140 55//140 60//140
f 66//141 11//141 10//141
f 13//142 12//142 67//142
f 69//143 66//143 65//143
f 70//144 67//144 12//144
f 69//145 68//145 73//145
f 71//146 70//146 75//146
f 71//147 76//147 73//147
f 77//148 74//148 73//148
f 77//149 80//149 78//149
f 26//54 11//54 66//54
f 27//150 26//150 81//150
f 83//151 84//151 82//151
f 85//152 30//152 29//152
f 86//153 87//153 85//153
f 81//59 66//59 72//59
f 89//60 88//60 72//60
f 83//154 81//154 88//154
f 90//155 84//155 83//155
f 91//156 92//156 90//156
f 86//157 84//157 90//157
f 93//158 87//158 86//158
f 94//66 89//66 74//66
f 96//159 92//159 91//159
f 97//70 70//70 15//70
f 44//160 99//160 97//160
f 99//161 100//161 98//161
f 45//162 100//162 99//162
f 47//163 102//163 100//163
f 102//164 103//164 101//164
f 103//165 102//165 47//165
f 104//77 105//77 76//77
f 98//166 105//166 104//166
f 107//167 108//167 106//167
f 101//168 108//168 107//168
f 109//169 108//169 101//169
f 110//170 79//170 76//170
f 110//171 111//171 80//171
f 106//172 111//172 110//172
f 112//173 111//173 106//173
f 114//86 59//86 32//86
f 62//174 59//174 114//174
f 63//90 118//90 103//90
f 119//175 116//175 115//175
f 64//176 119//176 118//176
f 64//177 61//177 116//177
f 122//178 121//178 113//178
f 122//95 114//95 87//95
f 124//179 121//179 120//179
f 124//180 116//180 113//180
f 109//99 125//99 123//99
f 125//181 118//181 115//181
f 126//101 95//101 80//101
f 127//182 96//182 95//182
f 127//183 126//183 120//183
f 127//184 121//184 92//184
f 128//105 112//105 108//105
f 128//185 123//185 120//185
usemtl Material.002
f 28//186 27//186 29//186
f 46//187 39//187 40//187
f 47//188 46//188 48//188
f 34//189 18//189 49//189
f 56//190 52//190 53//190
f 41//134 55//134 57//134
f 63//139 41//139 57//139
f 69//191 72//191 66//191
f 77//192 79//192 80//192
f 84//193 27//193 82//193
f 87//194 30//194 85//194
f 107//195 98//195 100//195
f 122//196 92//196 121//196
f 118//197 109//197 103//197
f 14//198 11//198 4//198
f 28//199 26//199 27//199
f 36//200 7//200 8//200
f 34//189 3//189 18//189
f 50//32 19//32 24//32
f 64//201 63//201 60//201
f 68//202 65//202 10//202
f 84//203 29//203 27//203
f 87//204 32//204 30//204
f 95//67 94//67 78//67
f 91//205 89//205 94//205
f 104//206 75//206 70//206
f 117//207 114//207 113//207
f 117//208 116//208 61//208
f 118//197 125//197 109//197
f 112//209 128//209 126//209
usemtl Material.003
f 14//210 5//210 13//210
f 21//114 4//114 20//114
f 23//211 22//211 24//211
f 36//200 8//200 37//200
f 104//206 70//206 97//206
f 112//209 126//209 111//209
f 14//212 6//212 5//212
f 47//213 45//213 46//213
f 71//214 68//214 67//214
f 69//215 74//215 72//215
f 77//216 76//216 79//216
f 107//217 105//217 98//217
f 122//196 93//196 92//196
f 124//218 123//218 115//218
