# Blender v3.1.2 OBJ File: 'fire_bullet.blend'
# www.blender.org
mtllib fire_bullet.mtl
o Sphere
v -0.046287 -0.346025 -0.225695
v -0.063257 0.394883 -0.104926
v 0.002700 0.244020 -0.337091
v -0.066531 -0.063581 -0.407942
v 0.013237 -0.263889 -0.320489
v 0.028226 0.101486 -0.407131
v 0.090998 -0.162294 -0.372069
v 0.203974 -0.035801 -0.365330
v -0.011755 -0.410745 -0.055818
v 0.111169 -0.343528 -0.204939
v 0.064680 0.371541 -0.175109
v 0.178691 0.242902 -0.291331
v 0.184171 0.331615 -0.169676
v 0.325263 -0.082628 -0.249727
v 0.301130 0.214564 -0.186187
v 0.228132 -0.259120 -0.237011
v 0.321040 0.111621 -0.243631
v 0.070432 0.404020 -0.063965
v 0.222555 0.350878 -0.015358
v 0.396661 -0.015081 -0.122058
v 0.339473 0.230050 -0.069236
v 0.377349 -0.163949 -0.074914
v 0.243226 -0.329609 -0.077800
v 0.415435 0.046256 -0.007861
v 0.104578 -0.399949 -0.034229
v 0.368620 0.180545 0.070307
v 0.341345 -0.235283 0.055522
v 0.257253 0.309688 0.097992
v 0.377845 -0.114464 0.130486
v 0.230774 -0.309876 0.155498
v 0.291248 0.166698 0.251470
v 0.364906 0.015936 0.203868
v 0.239682 -0.036591 0.337208
v 0.249108 -0.187660 0.277819
v 0.144768 -0.376400 0.107910
v 0.179134 0.294534 0.233095
v 0.206866 0.158470 0.323578
v 0.107457 -0.063705 0.398219
v 0.090325 0.089343 0.394827
v 0.053683 0.240156 0.334509
v 0.081901 -0.256455 0.319606
v 0.078166 0.401372 0.079701
v 0.026938 0.358444 0.210202
v -0.026403 -0.337507 0.243224
v 0.011211 -0.403317 0.089741
v -0.070460 0.256330 0.318699
v -0.085791 0.117604 0.390192
v -0.079734 -0.021050 0.407677
v -0.094613 -0.187756 0.362299
v -0.250015 -0.072477 0.324387
v -0.166156 0.332407 0.189145
v -0.265933 0.067410 0.314910
v -0.254593 -0.224701 0.240340
v -0.261251 0.209139 0.253660
v -0.188295 -0.321145 0.182095
v -0.339079 -0.157180 0.179018
v -0.354968 0.001555 0.222371
v -0.383600 0.151720 0.062879
v -0.394100 -0.109769 0.084028
v -0.111870 -0.391218 0.085070
v -0.066575 0.407800 0.040994
v -0.325080 -0.256332 0.048737
v -0.249026 0.330441 0.068236
v -0.416681 0.001419 0.012028
v -0.340427 0.234758 -0.038123
v -0.379904 0.099173 -0.133901
v -0.284962 -0.271913 -0.127332
v -0.228094 -0.348264 -0.000332
v -0.379111 -0.124225 -0.126867
v -0.165701 0.377776 -0.045146
v -0.251453 0.274756 -0.193330
v -0.179129 -0.323003 -0.191106
v -0.310376 0.095550 -0.266580
v -0.276704 -0.139206 -0.284130
v -0.205307 0.017208 -0.362494
v -0.137941 0.200014 -0.336363
v -0.091127 0.342857 -0.219375
v -0.102969 -0.391464 -0.086341
v -0.130257 -0.208927 -0.337129
vt 0.408408 0.883847
vt 0.452538 0.820274
vt 0.511619 0.899654
vt 0.513732 0.541048
vt 0.445743 0.383318
vt 0.558025 0.402866
vt 0.512072 0.684905
vt 0.440370 0.655955
vt 0.543483 0.163967
vt 0.393024 0.140968
vt 0.471076 0.018413
vt 0.981035 0.099632
vt 0.801687 0.030717
vt 0.406435 0.757663
vt 0.385989 0.523417
vt 0.374688 0.334851
vt 0.267115 0.095750
vt 0.378441 0.628356
vt 0.323767 0.416208
vt 0.334505 0.655661
vt 0.287954 0.280849
vt 0.290533 0.492732
vt 0.337778 0.801388
vt 0.281828 0.779792
vt 0.472692 0.985437
vt 0.305583 0.926991
vt 0.217636 0.248429
vt 0.138404 0.225404
vt 0.279825 0.632570
vt 0.217466 0.516282
vt 0.213563 0.666998
vt 0.087159 0.033985
vt 0.093020 0.155577
vt 0.018163 0.180489
vt 0.220124 0.382580
vt 0.146098 0.378022
vt 0.215395 0.813305
vt 0.177549 0.689877
vt 0.156814 0.519508
vt 0.113006 0.531940
vt 0.084612 0.366737
vt 0.182921 0.935430
vt 0.141110 0.809240
vt 0.126326 0.660145
vt 0.065897 0.596676
vt 0.045805 0.470087
vt 0.093415 0.860765
vt 0.037861 0.308131
vt 0.024073 0.978269
vt 0.075403 0.713458
vt 0.012149 0.671373
vt 0.887897 0.978262
vt 0.914258 0.265033
vt 0.845239 0.164505
vt 0.899055 0.132488
vt 0.012275 0.575496
vt 0.925680 0.451997
vt 0.855244 0.290450
vt 0.977971 0.748671
vt 0.882760 0.854121
vt 0.903543 0.727466
vt 0.897407 0.588106
vt 0.862208 0.419382
vt 0.854983 0.662701
vt 0.835873 0.492038
vt 0.801725 0.531653
vt 0.791290 0.357571
vt 0.752280 0.935154
vt 0.784390 0.779464
vt 0.774818 0.630357
vt 0.610760 0.929140
vt 0.782687 0.218174
vt 0.750176 0.092388
vt 0.726892 0.469061
vt 0.723449 0.287185
vt 0.710558 0.682859
vt 0.630819 0.797520
vt 0.654470 0.634164
vt 0.684842 0.182173
vt 0.658454 0.398213
vt 0.608603 0.520660
vt 0.540650 0.817932
vt 0.572088 0.676890
vt 0.603711 0.273515
vt 0.619432 0.094007
vt 0.494933 0.264262
vt 0.972538 0.855401
vt 0.723261 0.824741
vn 0.0207 0.9594 -0.2814
vn 0.1639 -0.0893 -0.9824
vn 0.1735 0.7404 -0.6493
vn 0.2259 0.4619 -0.8577
vn 0.2849 -0.6592 -0.6959
vn 0.1440 -0.9412 -0.3055
vn 0.3156 0.9063 -0.2812
vn 0.6970 0.0376 -0.7161
vn 0.4639 -0.7929 -0.3950
vn 0.5773 0.6471 -0.4979
vn 0.8644 0.0345 -0.5017
vn 0.6517 0.6942 -0.3056
vn 0.8960 -0.2355 -0.3765
vn 0.7362 -0.5903 -0.3311
vn 0.9151 0.2820 -0.2882
vn 0.9181 0.2660 -0.2938
vn 0.7246 0.6885 0.0284
vn 0.0400 0.9991 0.0163
vn 0.6165 -0.7811 0.0990
vn 0.9498 0.1839 0.2530
vn 0.7432 0.5636 0.3605
vn 0.1819 -0.9771 0.1105
vn 0.7619 -0.4917 0.4215
vn 0.4035 0.8538 0.3291
vn 0.7870 -0.2414 0.5677
vn 0.5132 0.5453 0.6628
vn 0.6998 0.1195 0.7043
vn 0.3717 -0.3924 0.8413
vn 0.2090 0.7305 0.6502
vn 0.0569 0.0285 0.9980
vn -0.0109 -0.2617 0.9651
vn 0.0068 0.7251 0.6886
vn -0.0630 -0.6386 0.7670
vn -0.1707 0.7894 0.5897
vn -0.4066 0.0968 0.9085
vn -0.1630 0.9193 0.3582
vn -0.1048 -0.9231 0.3701
vn -0.4419 0.0105 0.8970
vn -0.3195 -0.6746 0.6654
vn -0.4439 0.3678 0.8171
vn -0.2500 -0.8677 0.4297
vn -0.4914 -0.4096 0.7686
vn -0.7084 -0.0329 0.7050
vn -0.7585 -0.2413 0.6053
vn -0.8878 -0.2018 0.4135
vn -0.8478 -0.4620 0.2605
vn -0.7617 0.5640 0.3188
vn -0.9595 -0.0126 0.2815
vn -0.9532 0.1152 0.2796
vn -0.3741 0.9209 0.1095
vn -0.3362 -0.9417 -0.0161
vn -0.9713 -0.2317 -0.0532
vn -0.8348 -0.5317 -0.1431
vn -0.9678 -0.0114 -0.2515
vn -0.7925 0.4352 -0.4272
vn -0.5372 -0.8072 -0.2448
vn -0.8858 -0.0177 -0.4637
vn -0.8388 -0.0800 -0.5386
vn -0.7553 -0.4801 -0.4461
vn -0.6061 -0.5911 -0.5322
vn -0.6917 -0.0453 -0.7207
vn -0.4137 0.8625 -0.2914
vn -0.3844 0.6571 -0.6484
vn -0.5593 0.4645 -0.6866
vn -0.2907 -0.7044 -0.6476
vn -0.5094 0.3029 -0.8054
vn -0.4263 -0.2421 -0.8716
vn -0.4284 -0.2370 -0.8720
vn -0.2102 0.6598 -0.7215
vn -0.0540 0.9139 -0.4023
vn -0.0843 -0.9367 -0.3397
vn -0.0550 -0.4182 -0.9067
vn 0.0346 0.7788 -0.6263
vn 0.0938 -0.7808 -0.6177
vn 0.0630 -0.9283 -0.3665
vn 0.1644 -0.0945 -0.9819
vn 0.3001 -0.6044 -0.7380
vn 0.4163 0.2684 -0.8687
vn 0.2830 0.7689 -0.5734
vn 0.4882 -0.3945 -0.7785
vn 0.5159 0.2632 -0.8152
vn 0.5650 -0.3643 -0.7403
vn 0.6360 0.4662 -0.6150
vn 0.3630 -0.8888 -0.2797
vn 0.7718 -0.4567 -0.4424
vn 0.3810 0.9011 -0.2072
vn 0.8734 0.3549 -0.3334
vn 0.6379 0.7286 -0.2496
vn 0.7719 -0.6228 -0.1275
vn 0.9297 0.3623 -0.0657
vn 0.4569 -0.8893 0.0182
vn 0.3299 0.9440 -0.0004
vn 0.9850 -0.1530 -0.0797
vn 0.9805 -0.1916 0.0438
vn 0.9400 -0.3322 0.0778
vn 0.7628 0.6430 0.0688
vn 0.5738 -0.8129 0.0994
vn 0.9732 -0.0316 0.2277
vn 0.4323 0.8819 0.1882
vn 0.0855 -0.9956 0.0373
vn 0.8688 0.3001 0.3940
vn 0.7369 -0.5302 0.4193
vn 0.6421 0.6266 0.4416
vn 0.7523 -0.1999 0.6278
vn 0.3022 0.8639 0.4028
vn 0.4274 -0.6708 0.6061
vn 0.6323 0.1593 0.7581
vn 0.4498 -0.3023 0.8404
vn 0.3100 -0.7848 0.5367
vn 0.4557 0.1381 0.8794
vn 0.4069 0.0657 0.9111
vn 0.2348 -0.8142 0.5310
vn 0.3553 0.5668 0.7434
vn 0.2828 0.4146 0.8649
vn 0.1248 -0.9004 0.4167
vn 0.0727 -0.3849 0.9201
vn 0.0364 0.3787 0.9248
vn -0.0525 0.4620 0.8853
vn -0.0061 0.1249 0.9922
vn -0.0376 0.9535 0.2989
vn -0.3861 0.4559 0.8019
vn -0.3771 -0.2118 0.9016
vn -0.3848 0.6433 0.6619
vn -0.3594 -0.6509 0.6687
vn -0.1001 -0.9928 0.0665
vn -0.3514 0.9085 0.2261
vn -0.7113 -0.3232 0.6241
vn -0.7825 0.2686 0.5617
vn -0.4820 -0.8452 0.2308
vn -0.6085 0.6819 0.4060
vn -0.7282 -0.5808 0.3638
vn -0.6584 -0.6652 0.3520
vn -0.8396 0.3121 0.4445
vn -0.5992 -0.7625 0.2441
vn -0.7922 0.5921 0.1481
vn -0.9074 -0.4187 -0.0358
vn -0.9305 0.3491 -0.1107
vn -0.7107 -0.6963 -0.1003
vn -0.9671 0.2407 -0.0825
vn -0.2039 -0.9790 -0.0092
vn -0.6205 0.7681 -0.1578
vn -0.6386 0.7539 -0.1546
vn -0.8099 0.4770 -0.3414
vn -0.4555 -0.8598 -0.2308
vn -0.2154 0.9723 -0.0910
vn -0.3640 0.8502 -0.3804
vn -0.5078 -0.5882 -0.6294
vn -0.2552 -0.8838 -0.3920
vn -0.0407 0.9952 -0.0890
vn -0.1803 -0.6845 -0.7063
vn -0.2623 0.2306 -0.9370
vn -0.2341 0.1391 -0.9622
vn -0.1352 0.4174 -0.8986
vn -0.0552 -0.4177 -0.9069
usemtl Material.005
s off
f 18/1/1 11/2/1 2/3/1
f 6/4/2 8/5/2 4/6/2
f 3/7/3 11/2/3 12/8/3
f 3/7/4 12/8/4 6/4/4
f 5/9/5 16/10/5 10/11/5
f 10/11/6 25/12/6 9/13/6
f 11/2/7 18/1/7 13/14/7
f 8/5/8 17/15/8 14/16/8
f 10/11/9 16/10/9 23/17/9
f 12/8/10 13/14/10 15/18/10
f 17/15/11 20/19/11 14/16/11
f 13/14/12 21/20/12 15/18/12
f 20/19/13 22/21/13 14/16/13
f 22/21/14 23/17/14 16/10/14
f 21/20/15 24/22/15 17/15/15
f 17/15/16 24/22/16 20/19/16
f 19/23/17 28/24/17 21/20/17
f 18/1/18 61/25/18 42/26/18
f 27/27/19 30/28/19 23/17/19
f 24/22/20 26/29/20 32/30/20
f 28/24/21 31/31/21 26/29/21
f 25/32/22 35/33/22 45/34/22
f 29/35/23 34/36/23 27/27/23
f 42/26/24 36/37/24 28/24/24
f 32/30/25 34/36/25 29/35/25
f 31/31/26 36/37/26 37/38/26
f 31/31/27 33/39/27 32/30/27
f 38/40/28 41/41/28 34/36/28
f 36/37/29 43/42/29 40/43/29
f 39/44/30 48/45/30 38/40/30
f 38/40/31 48/45/31 49/46/31
f 40/43/32 43/42/32 46/47/32
f 41/41/33 49/46/33 44/48/33
f 43/42/34 51/49/34 46/47/34
f 47/50/35 52/51/35 48/45/35
f 61/25/36 51/52/36 43/42/36
f 44/53/37 60/54/37 45/55/37
f 52/51/38 50/56/38 48/45/38
f 44/53/39 49/57/39 55/58/39
f 47/59/40 54/60/40 52/61/40
f 55/58/41 60/54/41 44/53/41
f 49/57/42 50/62/42 53/63/42
f 50/62/43 52/61/43 57/64/43
f 57/64/44 56/65/44 50/62/44
f 57/64/45 59/66/45 56/65/45
f 56/65/46 59/66/46 62/67/46
f 54/60/47 63/68/47 58/69/47
f 57/64/48 64/70/48 59/66/48
f 58/69/49 64/70/49 57/64/49
f 61/25/50 70/71/50 63/68/50
f 68/72/51 78/73/51 60/54/51
f 64/70/52 69/74/52 59/66/52
f 69/74/53 67/75/53 62/67/53
f 66/76/54 69/74/54 64/70/54
f 71/77/55 73/78/55 66/76/55
f 68/72/56 67/75/56 72/79/56
f 66/76/57 73/78/57 69/74/57
f 69/74/58 73/78/58 74/80/58
f 69/74/59 74/80/59 67/75/59
f 67/75/60 74/80/60 72/79/60
f 73/78/61 75/81/61 74/80/61
f 71/77/62 2/3/62 77/82/62
f 77/82/63 76/83/63 71/77/63
f 71/77/64 76/83/64 73/78/64
f 79/84/65 1/85/65 72/79/65
f 73/78/66 76/83/66 75/81/66
f 74/80/67 75/81/67 4/6/67
f 74/80/68 4/6/68 79/84/68
f 77/82/69 3/7/69 76/83/69
f 2/3/70 11/2/70 77/82/70
f 1/85/71 9/13/71 78/73/71
f 79/84/72 7/86/72 5/9/72
f 77/82/73 11/2/73 3/7/73
f 1/85/74 5/9/74 10/11/74
f 9/13/75 1/85/75 10/11/75
f 7/86/76 4/6/76 8/5/76
f 5/9/77 7/86/77 16/10/77
f 6/4/78 12/8/78 8/5/78
f 12/8/79 11/2/79 13/14/79
f 7/86/80 8/5/80 16/10/80
f 8/5/81 12/8/81 17/15/81
f 16/10/82 8/5/82 14/16/82
f 12/8/83 15/18/83 17/15/83
f 25/32/84 10/11/84 23/17/84
f 16/10/85 14/16/85 22/21/85
f 13/14/86 18/1/86 19/23/86
f 17/15/87 15/18/87 21/20/87
f 21/20/88 13/14/88 19/23/88
f 22/21/89 27/27/89 23/17/89
f 24/22/90 21/20/90 26/29/90
f 23/17/91 35/33/91 25/32/91
f 18/1/92 42/26/92 19/23/92
f 22/21/93 20/19/93 24/22/93
f 22/21/94 24/22/94 29/35/94
f 22/21/95 29/35/95 27/27/95
f 21/20/96 28/24/96 26/29/96
f 23/17/97 30/28/97 35/33/97
f 29/35/98 24/22/98 32/30/98
f 28/24/99 19/23/99 42/26/99
f 25/12/100 45/55/100 9/13/100
f 26/29/101 31/31/101 32/30/101
f 27/27/102 34/36/102 30/28/102
f 28/24/103 36/37/103 31/31/103
f 34/36/104 32/30/104 33/39/104
f 36/37/105 42/26/105 43/42/105
f 30/28/106 34/36/106 41/41/106
f 33/39/107 31/31/107 37/38/107
f 34/36/108 33/39/108 38/40/108
f 35/33/109 30/28/109 41/41/109
f 33/39/110 37/38/110 39/44/110
f 33/39/111 39/44/111 38/40/111
f 35/33/112 41/41/112 44/48/112
f 37/38/113 36/37/113 40/43/113
f 39/44/114 37/38/114 40/43/114
f 45/34/115 35/33/115 44/48/115
f 38/40/116 49/46/116 41/41/116
f 40/43/117 47/50/117 39/44/117
f 40/43/118 46/47/118 47/50/118
f 39/44/119 47/50/119 48/45/119
f 42/26/120 61/25/120 43/42/120
f 47/59/121 46/87/121 54/60/121
f 49/46/122 48/45/122 50/56/122
f 46/87/123 51/52/123 54/60/123
f 55/58/124 49/57/124 53/63/124
f 45/55/125 60/54/125 9/13/125
f 51/52/126 61/25/126 63/68/126
f 53/63/127 50/62/127 56/65/127
f 52/61/128 54/60/128 57/64/128
f 55/58/129 68/72/129 60/54/129
f 54/60/130 51/52/130 63/68/130
f 53/63/131 56/65/131 62/67/131
f 55/58/132 53/63/132 62/67/132
f 57/64/133 54/60/133 58/69/133
f 55/58/134 62/67/134 68/72/134
f 58/69/135 63/68/135 65/88/135
f 62/67/136 59/66/136 69/74/136
f 58/69/137 65/88/137 66/76/137
f 68/72/138 62/67/138 67/75/138
f 64/70/139 58/69/139 66/76/139
f 9/13/140 60/54/140 78/73/140
f 65/88/141 63/68/141 71/77/141
f 63/68/142 70/71/142 71/77/142
f 65/88/143 71/77/143 66/76/143
f 68/72/144 72/79/144 78/73/144
f 70/71/145 61/25/145 2/3/145
f 71/77/146 70/71/146 2/3/146
f 74/80/147 79/84/147 72/79/147
f 78/73/148 72/79/148 1/85/148
f 61/25/149 18/1/149 2/3/149
f 1/85/150 79/84/150 5/9/150
f 75/81/151 76/83/151 6/4/151
f 75/81/152 6/4/152 4/6/152
f 76/83/153 3/7/153 6/4/153
f 79/84/154 4/6/154 7/86/154
